<svg xmlns="http://www.w3.org/2000/svg" viewBox="0 0 247239 333333" shape-rendering="geometricPrecision" text-rendering="geometricPrecision" image-rendering="optimizeQuality" fill-rule="evenodd" clip-rule="evenodd">
  <defs>
    <style>
      .fil4{fill:#c9c9c9}.fil0{fill:#fba919}.fil2{fill:#fdc168}.fil3{fill:#fff}
    </style>
  </defs>
  <g id="Layer_x0020_1">
    <path class="fil0" d="M15964 81016s5709 22018 6523 29358c817 7339-14678 23648-14678 31803 0 8156 3257 22834 21200 30174 17943 7339 20387 26094 20387 37513 0 11416-6523 33431-6523 33431s-4076 54637 17940 64422 17125 9785 22016 9785c4892 0 40774 14683 61975 8973 21203-5708 26907-12231 26907-12231s21204 1630 27728-17129c6526-18754 10602-57896 8154-75837-2447-17943-5707-41587 8969-49743 14683-8156 30174-17938 27727-26095-2447-8156-15490-19572-15490-19572s-3263-20385-819-25279c2445-4893 17125-17128 8969-26096-8150-8969-22833-8969-22833-8969l-18754 1629s-31803-28540-73392-26909c-41587 1630-67684 26909-67684 26909s-13862-4893-26095 0c-12233 4894-14672-1-12227 13863z" />
    <path d="M123728 310390c-38675 0-51774-19633-51774-19633l6044 14718c2284 6367 26655 26180 45671 26180m-154-21265c38668 0 51768-19633 51768-19633l-6040 14718c-2283 6367-26657 26180-45669 26180M88261 123811c-7360-10448-19490-15006-29175-15761-16513-1291-24353 4547-24353 4547s27045 1144 34840 11383c2834 3721 5922 6772 9082 9246-11294-4637-34319-12324-34319-6942 0 6648 1898 30396 20421 37043 7074 2540 12900 2376 17401 1204-1120 11217-5459 15770-5459 15770s11037-3481 13931-10481c2667-6438 7535-18582 7535-18582v-1l-3787-529c-791-4431-3678-8853-6512-11849 9863 4519 18691 4117 20776 1540-3915 195-8221-1744-12831-6103-2880-2726-5213-7168-7550-10485zM76191 277491s3558 21745 17806 21745c12107 0 15674-18369 15674-22165l-33480 420zm-23709-32796c1266-3485 5698-17573 7122-30394 1706-15356 1085-37815 1085-37815s-2023 7833-4408 12995c-411-10853-1945-24439-13675-28726v-1s-16119-5542-22483-12614c2556-2076 6790-7220 8403-19142 2374-17572-2851-32769-2851-32769s474 24220-2374 28970c-765 1274-1496 2309-2219 3260-357-3026-1617-4609-1617-4609S2709 136358 6978 149655c2624 8161 7026 14070 31199 25398 6039 11217 6435 27105 5508 39783-914 6529-3253 22975-4502 29384 4357 872 8024-1695 13299 474zm71139-134034c-6457 0-14876-177-21193-4717 0 0 8271 14499 21183 14499l11-1835 11 1835c12913 0 21182-14498 21182-14498-6316 4538-14741 4716-21193 4716zm47427 166830s-3562 21745-17806 21745c-12104 0-15673-18369-15673-22165l33479 420zm23709-32796c-1266-3485-5698-17573-7126-30394-1707-15356-1081-37815-1081-37815s2024 7841 4409 13002c409-10854 1941-24446 13674-28735 0 0 16119-5543 22483-12616-2557-2077-6790-7221-8400-19140-2374-17572 2850-32769 2850-32769s-477 24220 2374 28970c764 1273 1494 2307 2217 3258 357-3024 1615-4606 1615-4606s16759 12508 12487 25804c-2624 8161-7026 14070-31199 25398-6043 11226-6437 27130-5506 39813 917 6548 3250 22956 4497 29355-4355 872-8019-1695-13294 474zm-37994-42264s16145 24692 27994 42215c1833 2711-11849 2899-11849 2899l-16145-45115v1zm8313-37901c4502 1173 10330 1338 17409-1203 18523-6649 20420-30394 20420-37043 0-5384-23045 2312-34334 6948 3162-2475 6253-5528 9089-9252 7797-10238 34842-11383 34842-11383s-7836-5838-24350-4547c-9689 755-21815 5312-29175 15761-2335 3317-4671 7758-7550 10485-4606 4358-8915 6298-12829 6103 2085 2577 10914 2979 20779-1544-2835 2996-5725 7419-6517 11852l-3788 530v1s4868 12144 7531 18582c2896 7000 13931 10481 13931 10481s-4338-4553-5458-15771zm58866-133286s-17096-3327-28496 5697c-11395 9023-14722 16147-14722 16147l19211 15227s9286-4305 12135-16652c2848-12347 949-18045 11872-20419zm-58630 18583c12578 6392 29819 15294 29819 15294l-6783 3394c647 1048 960 1674 960 1674l-6964 3166s-16999 12314-27414 20231c3469-10694 13663-27492 13663-27492s2894-7719-3281-16268zm-41799 260563zM23294 31244s17096-3327 28491 5697c11401 9023 14722 16147 14722 16147L47297 68315s-9282-4303-12131-16652c-2849-12348-949-18045-11872-20420zm67181 171187s-16149 24692-27994 42215c-1833 2711 11845 2899 11845 2899l16149-45115v1zM81926 49827c-12582 6392-29820 15294-29820 15294l6785 3394c-648 1048-960 1674-960 1674l6963 3166s16998 12314 27412 20231c-3472-10695-13665-27493-13665-27493s-2888-7719 3285-16268v1zm41800 260563z" fill="#e78724" />
    <path class="fil2" d="M27715 35400l-1648-1044c-4859 164 1648 1044 1648 1044z" />
    <path class="fil0" d="M88497 44624s-7595-1265-11396-6963c-3802-5699-14563-17099-31721-17225-17157-128-34131 4560-34131 4560l14817 9363c1568-52 4308-30 8839 122 18596 618 21459 19011 21459 19011l65535-9024m-33401 157z" />
    <path class="fil3" d="M94832 146215s-8866 8865-22482 6014c-13615-2848-21848-8864-22481-19313-633-10448 2852-14563 2852-14563s15195 4752 22481 11084c7282 6331 12663 16462 19629 16778h1zM73563 259724c-563-3256-622-6345 65-9380-2740-2060-7657-2825-11347-4021-3017-1909-18457 1957-29657-11599-14035-16974-11082-27108-11082-27108-3598 3998-7086 2474-12570 21116-5493 18646 2578 31643 17620 44693 7106 6163 17152 8704 25793 9675-2894-2906 4944-3197 10347-5218-431-4363 291-8598 3544-12007 1961-2056 4485-3285 7104-4264 146-338 269-651 408-976-92-298-168-604-225-911z" />
    <path class="fil2" d="M219525 35400l1651-1044c4859 164-1651 1044-1651 1044z" />
    <path class="fil0" d="M158741 44624s7600-1265 11397-6963c3800-5699 14566-17099 31725-17226 17157-128 34131 4560 34131 4560l-14818 9363c-1567-52-4307-30-8843 121-18593 618-21456 19011-21456 19011l-65533-9024m33396 158z" />
    <path class="fil3" d="M152410 146215s8866 8865 22479 6014c13616-2848 21848-8864 22482-19313 632-10448-2849-14563-2849-14563s-15200 4752-22481 11084c-7282 6333-12664 16462-19631 16778zM173677 259724c567-3256 622-6345-65-9380 2744-2060 7657-2825 11347-4021 3017-1909 18461 1957 29662-11599 14034-16974 11077-27108 11077-27108 3602 3998 7086 2474 12574 21116 5493 18646-2582 31643-17624 44693-7105 6163-17152 8704-25793 9675 2894-2906-4944-3197-10344-5218 431-4363-294-8598-3546-12007-1957-2056-4485-3285-7100-4264-148-338-274-651-409-976 87-296 168-596 224-910h-1z" />
    <path class="fil4" d="M184576 277768c317-916 548-1849 780-2789 254-1025 1497-3933-38-613 394-850 651-1726 842-2608 24361-31 45555-16757 41456-51922 3189-4234 7658 8538 7658 8538s12196 35412-19302 49136c-10495 4577-19768 7859-21957 6534-4563 926-8678-2251-10217-4341 288-641 558-1285 778-1935z" />
    <path d="M141401 110591c-6476 3920-12261 5278-17779 5399-5519-120-11301-1479-17779-5399 0 0 9433 11510 17731 11598v7c15 0 29-4 47-4 15 0 29 4 46 4v-7c8297-88 17733-11598 17733-11598zm88746 32150s-7897-9799-10238-28864c-919-7511 711-22323 3323-28021-107 3173-7 6345 211 9356 257-541 539-1012 848-1398 2093-2614 7704-11404 6092-17311-618-2254-2039-3926-4350-5109-2446-1254-5746-1888-9818-1888-7985 0-16852 2432-21420 3880-16337 5178-36051 20108-41706 24560-161 124-255 197-272 209l-3619 2515 2261-3784c133-219 12431-20440 34597-30283-1310-1881-4797-5294-14052-9807-13959-6809-30235-10261-48387-10267-18148 6-34431 3458-48392 10267-9249 4510-12734 7922-14045 9804 22170 9842 34472 30067 34602 30285l2261 3784-3616-2515c-17-12-113-85-275-209-5650-4452-25365-19382-41702-24560-4572-1448-13434-3880-21424-3880-4067 0-7372 635-9818 1888-2312 1183-3731 2855-4346 5109-1612 5907 3995 14697 6088 17311 307 384 589 853 845 1392 218-3008 318-6179 210-9349 2613 5698 4246 20510 3327 28021-2341 19065-10242 28864-10242 28864 511-1020 1147-5008 1752-9709-477 411-955 797-1419 1172l-321 259c-2972 2394-5780 4652-5780 11874 0 9230 10002 14637 19674 19863 1861 1006 3708 2006 5477 3023 5647 3254 11737 10886 12417 22258 568 9528-572 32498-2226 49397 8102 3135 17392 4163 25837 4405 1320-2688 2555-5566 3574-8559 434-1274 12746-33242 17179-40525-3553 25381-11402 47958-15302 58334 2246-306 4771-479 7620-479 0 0 27053-16 38004-23h93l38000 23c2848 0 5373 173 7619 479-3898-10376-11748-32953-15301-58333 4429 7283 16741 39251 17176 40525 1020 2993 2254 5871 3574 8559 8446-242 17737-1270 25840-4406-1655-16899-2797-39868-2224-49396 679-11372 6766-19004 12412-22258 1769-1017 3617-2017 5481-3023 9672-5226 19674-10633 19674-19863 0-7222-2810-9480-5781-11874l-317-259c-466-376-946-764-1425-1177 606 4703 1240 8693 1750 9713zm-24813-7028s4145-5934 3396-12461c-368-3223-1861-6532-4528-7706l-78-33c3023-1145 5988-2059 8815-2681-27508-6671-47798 13404-54128 20684-10843 12471-23112 5698-23112 5698-195 7224 6713 12398 13745 12707-755 10067 9048 21168 9048 21168s-3628-9761-1733-16439c580-2042 1270-3923 1922-5511 12542 11237 31232 989 35715-3974 6248-6911 8034-15534 8313-22237 1182 2465 2200 5929 2623 10785zm-25336 118853c1737 2706 3341 4925 4532 6491 343 327 661 652 957 972 4702 5080 5603 12066 2671 20756 4572-74 9209-735 13663-1996 712-1972 1039-3401 1048-3961h8743c5824-3168 10869-7618 14383-13397 7900-13004 5685-35204 2435-38457-7098 22406-30732 28815-48433 29592zm-112756 0c-1741 2713-3348 4935-4541 6502-339 324-654 645-946 961-4706 5080-5604 12066-2672 20756-4575-74-9215-734-13670-1997-711-1971-1037-3398-1046-3957h-4708l4708 4-8737-4c-5825-3169-10870-7619-14383-13399-7905-13004-5688-35204-2439-38457 7102 22407 30735 28816 48434 29592zm123032-132494c-12713 7147-24387 16713-29249 24109l-10 18c3740 2171 14124 6793 24717-1079 6770-5033 6472-17139 4541-23048zm-92477 29850c7033-309 13943-5484 13748-12707 0 0-12273 6773-23117-5698-6331-7280-26615-27355-54125-20684 2827 622 5791 1537 8813 2681l-77 33c-2665 1174-4160 4482-4531 7706-745 6526 3400 12461 3400 12461 423-4853 1440-8315 2620-10780 280 6702 2066 15322 8309 22229 4483 4964 23175 15212 35719 3973 654 1589 1344 3472 1925 5515 1895 6678-1733 16439-1733 16439s9803-11102 9049-21168zm-40831-29852c12713 7147 24388 16715 29247 24111l11 20c-3744 2172-14128 6789-24718-1081-6767-5033-6469-17141-4540-23050zm-25232 55381c1751 1011 7928 7408 7931 16974 0 4485-417 25835-2411 40626-7521-6448-14451-16846-16007-28487 0 0-19031 14685-13439 46117 3417 19214 15078 29997 30571 35632 5727 12424 19125 29786 43820 32321 9403 7695 22417 12679 41375 12694v4c16 0 30-4 47-4 15 0 29 4 46 4v-4c18956-17 31969-5000 41371-12694 24694-2534 38093-19897 43821-32321 15493-5635 27154-16418 30574-35633 5591-31432-13439-46117-13439-46117-1557 11640-8485 22037-16005 28484-1996-14792-2414-36139-2411-40624 0-9566 6179-15963 7932-16974h-1c1655-956 3493-1936 5419-2971 11721-6275 26310-14080 26310-28475 0-10521-6049-15085-10052-18106-506-381-976-738-1400-1081-1357-1093-2427-1957-2818-2837-2833-6373-2313-22296-1085-24489 359-423 10893-13630 7659-25491-1322-4839-4495-8667-9187-11066-3459-1769-7726-2756-12708-2939-59-1285-335-2557-607-3815-369-1697-746-3452-596-5253 258-3029 497-5882 1409-7324 5499-8680 18780-11458 18912-11485l7983-1564-5291-6185c-95-114-11250-11375-30139-11375-5154 0-10430 856-15678 2552-15769 5085-27903 19847-32132 25563-2046-636-4126-1217-6239-1742-2722-10287 5830-25043 5830-25043s-8822-1963-21915 9921c-1696-4229-5253-13352-1147-24244-19175 6773-24031 17112-25467 26489-4933-3530-4385-15011-4657-17954-4902 586-18987 14246-18357 31457-1285 350-2557 720-3817 1111-4230-5717-16366-20479-32135-25563-5248-1696-10524-2553-15674-2553-18889 0-30043 11259-30140 11375l-5290 6185 7980 1565c131 27 13413 2806 18908 11484 911 1441 1155 4297 1409 7324 156 1801-227 3556-591 5253-274 1260-550 2535-609 3820-4983 183-9256 1170-12711 2939-4691 2399-7866 6227-9186 11066-3234 11862 7299 25069 7657 25491 1228 2192 1749 18116-1089 24489-389 880-1459 1744-2813 2837-425 343-899 700-1401 1081C6051 130917 0 135481 0 146002c0 14395 14589 22200 26314 28476 1924 1035 3760 2014 5419 2970zm144341 130880c3171-4719 5750-9829 7999-15072 4140-321 8192-827 12105-1555-4224 6212-10696 12824-20104 16627zm20587-245439c-1474-2042-3662-4567-6843-7267 938-3130 3600-10508 8818-14657 3578-2850 7843-4386 12687-4573-528 675-1029 1382-1498 2121-2156 3405-2507 7570-2847 11594-355 4178-688 8148-2834 11040-2720 509-5262 1127-7483 1741zM51056 291703c3915 729 7969 1235 12111 1556 2249 5244 4827 10354 7999 15074-9412-3803-15887-10416-20111-16630zm-478-228812c-2219-613-4758-1231-7476-1740-2148-2893-2483-6865-2834-11045-342-4024-692-8188-2849-11594-468-738-968-1443-1494-2117 4843 188 9107 1726 12684 4573 5215 4146 7876 11519 8816 14652-3184 2701-5372 5229-6847 7271zm23582-17433c-4000-5852-12964-17182-24568-20925-3674-1186-7545-1785-11502-1785-7167 0-12979 1954-16072 3265 2006 903 4177 2046 6315 3471 1567-270 3614-507 5976-507 6843 0 13313 2008 18717 5804 8015 5631 11734 11005 13448 14551 1424-818 2951-1631 4591-2430 1021-498 2053-978 3095-1443zm106610 3878c-1425-819-2954-1632-4595-2433-1019-496-2049-976-3089-1440 3997-5851 12962-17183 24570-20926 3676-1186 7539-1785 11498-1785 7168 0 12981 1953 16074 3263-2004 904-4173 2046-6310 3470-1569-270-3619-508-5985-508-6843 0-13315 2007-18715 5803-8016 5635-11735 11009-13448 14555zm-34104 241776c-4893-5231-7788-10860-8487-12589-400-985-855-2863 579-4338 1119-1142 3057-1729 5767-1729h4172c4348 0 9431 0 12454 4l2536 4c3561 0 5315 1019 6160 1873 1228 1243 1420 2971 574 5137-2264 5783-7405 10502-8924 11811-1990 1718-4847 2737-7653 2737-2876 0-5425-1034-7177-2909zm-53263 2909c-2806 0-5670-1019-7654-2737-1520-1310-6658-6030-8924-11811-845-2162-656-3892 571-5137 846-853 2602-1873 6165-1873l2535-4c3021-4 8107-4 12455-4h4169c2711 0 4654 587 5771 1730 1435 1474 976 3350 573 4337-698 1730-3589 7357-8482 12589-1752 1876-4302 2909-7178 2909zm85482-11844c-4295 12305-15840 42089-55264 42140-39429-52-50969-29834-55265-42140-2377-6827-2196-11879 556-15017 1880-2146 6198-4706 16040-4706l10282-4c7585-7 17109-15 28388-20 11275 5 20804 13 28387 20l10278 4c9844 0 14162 2559 16043 4706 2749 3141 2932 8190 554 15017h1z" fill="#463014" />
    <path class="fil4" d="M62662 277768c-313-916-549-1849-780-2789-250-1025-1494-3933 39-613-394-850-651-1726-841-2608-24361-31-45555-16757-41460-51922-3189-4234-7656 8538-7656 8538s-12196 35411 19302 49136c10495 4577 19770 7859 21958 6534 4558 926 8672-2251 10216-4342-289-641-553-1285-778-1935zm100475-134720s7692 3512 16283 651c11253-3753 12002-15452 12002-15452s6898 20254-12452 24152c-15517 3126-24697-5867-24697-5867l8864-3485v1zm-79035 0s-7689 3512-16283 651c-11250-3753-11999-15452-11999-15452s-6902 20254 12448 24152c15519 3126 24698-5867 24698-5867l-8864-3485v1z" />
  </g>
</svg>